<svg width="8" height="11" xmlns="http://www.w3.org/2000/svg">

 <g>
  <title>background</title>
  <rect fill="none" id="canvas_background" height="402" width="582" y="-1" x="-1"/>
 </g>
 <g>
  <title>Layer 1</title>
  <path transform="rotate(-179.7149658203125 4.000076293945313,5.439421176910401) " id="svg_1" fill="#41F6D7" d="m6.50008,0.50008l-2.5,2.5l-2.5,-2.5c-0.27615,-0.27615 -0.72386,-0.27615 -1,0c-0.27615,0.27614 -0.27615,0.72385 0,1l2.79289,2.79289c0.39052,0.39052 1.02369,0.39052 1.41421,0l2.7929,-2.79289c0.27614,-0.27615 0.27614,-0.72386 0,-1c-0.27615,-0.27615 -0.72386,-0.27615 -1,0zm0,6l-2.5,2.5l-2.5,-2.5c-0.27615,-0.27615 -0.72386,-0.27615 -1,0c-0.27615,0.27614 -0.27615,0.72385 0,1l2.79289,2.79292c0.39052,0.3905 1.02369,0.3905 1.41421,0l2.7929,-2.79292c0.27614,-0.27615 0.27614,-0.72386 0,-1c-0.27615,-0.27615 -0.72386,-0.27615 -1,0z" clip-rule="evenodd" fill-rule="evenodd"/>
 </g>
</svg>